<svg width="144" height="109" viewBox="0 0 144 109" fill="none" xmlns="http://www.w3.org/2000/svg">
<path d="M117.866 61.7746C123.133 60.8764 124.558 59.2769 125.326 53.4446C125.404 52.8417 126.195 52.8294 126.284 53.4446C127.097 59.2646 128.544 60.8395 133.822 61.6885C134.368 61.7746 134.379 62.6483 133.822 62.7467C128.556 63.6449 127.13 65.2445 126.362 71.0767C126.284 71.6796 125.493 71.6919 125.404 71.0767C124.591 65.2568 123.144 63.6818 117.866 62.8328C117.32 62.7467 117.32 61.8731 117.866 61.7746Z" fill="#FFE01A"/>
<path d="M134.795 40.4942C136.857 40.0291 137.807 39.2403 138.351 37.5516C138.548 36.9449 139.598 36.9348 139.795 37.5415C140.363 39.2302 141.326 40.0089 143.388 40.4538C144.129 40.6156 144.142 41.4751 143.401 41.6369C141.339 42.1021 140.388 42.8908 139.845 44.5795C139.647 45.1863 138.598 45.1964 138.4 44.5897C137.832 42.9009 136.869 42.1223 134.807 41.6774C134.054 41.5257 134.041 40.6662 134.795 40.4942Z" fill="#FFE01A"/>
<path d="M8.04786 7.72268C8.66431 11.5807 9.99025 13.0894 13.561 14.0415C14.3519 14.2517 14.3054 15.4636 13.5028 15.6119C9.87394 16.2673 8.45496 17.677 7.55937 21.4732C7.36164 22.3141 6.22179 22.2646 6.08221 21.4114C5.46577 17.5533 4.13984 16.0447 0.569111 15.0926C-0.221799 14.8824 -0.175275 13.6705 0.627267 13.5222C4.25615 12.8668 5.67514 11.4571 6.57073 7.66085C6.76845 6.83236 7.90829 6.88182 8.04786 7.72268Z" fill="#FFE01A"/>
<path d="M122.015 19.8454C119.525 16.2821 115.314 14.3044 110.967 14.3044H108.102C107.335 14.3044 106.636 13.9293 106.176 13.3155C104.658 11.2185 102.271 9.78634 99.5606 9.64994C92.417 9.27486 85.0517 9.05322 77.6181 8.96797V8.93387C76.6463 8.93387 75.5552 8.95092 74.5834 8.95092C73.6115 8.95092 72.5204 8.93387 71.5486 8.93387V8.96797C64.098 9.05322 56.7327 9.27486 49.6061 9.64994C46.8952 9.78634 44.5083 11.2355 42.9909 13.3155C42.5477 13.9293 41.8316 14.3044 41.0644 14.3044H38.2001C33.8525 14.3044 29.6413 16.2821 27.1521 19.8454C24.3901 23.8009 24.015 28.8134 26.1291 33.1098C32.0112 45.0614 40.0925 51.3697 49.4867 51.3526C50.4585 51.3526 51.3622 51.83 51.9589 52.5972C58.3012 60.6615 64.1151 61.4117 66.3656 62.9802C67.7977 63.9862 69.0082 66.1855 69.0082 67.9416V69.6636C69.0082 70.7206 68.6331 71.8288 67.7295 72.3915C65.121 74.0282 58.574 76.023 56.0848 79.9784C55.3517 81.1378 56.2553 82.7404 58.233 82.9621C63.4672 83.5758 69.0253 83.7293 74.5834 83.7293C80.1414 83.7293 85.6143 83.7293 90.9337 82.9621C92.9114 82.6722 93.8662 80.9843 93.0137 79.8932C89.9107 75.9718 84.5743 74.2839 81.4201 72.3744C80.5165 71.8288 80.1414 70.7036 80.1414 69.6465V67.9246C80.1414 66.1685 81.3519 63.9691 82.7841 62.9632C85.0346 61.3947 90.8484 60.6445 97.1908 52.5802C97.7875 51.8129 98.6911 51.3355 99.6629 51.3355C109.074 51.3526 117.139 45.0443 123.021 33.0928C125.152 28.8134 124.777 23.8009 122.015 19.8454ZM44.0309 41.3276C40.1607 39.7079 35.3358 34.218 34.2787 29.2567C33.9036 27.5006 34.2105 25.6593 34.9436 24.7897C35.3358 24.3465 36.3417 23.2894 38.1319 23.2894H39.1037C40.8939 23.2894 41.7634 24.9602 41.968 26.7504C42.326 29.8875 44.406 36.9971 45.8893 40.0318C46.4008 41.0889 45.1051 41.7879 44.0309 41.3276ZM114.871 29.2567C113.814 34.218 108.989 39.6909 105.119 41.3276C104.028 41.7879 102.749 41.0889 103.26 40.0318C104.744 36.9971 106.824 29.8875 107.182 26.7504C107.386 24.9602 108.239 23.2894 110.046 23.2894H111.018C112.791 23.2894 113.814 24.3465 114.206 24.7897C114.939 25.6593 115.246 27.5006 114.871 29.2567Z" fill="#FFD000"/>
<path d="M107.199 12.6506H41.9509C38.7286 12.6506 36.0859 10.008 36.0859 6.78565V6.30827C36.0859 3.08594 38.7286 0.443298 41.9509 0.443298H107.199C110.421 0.443298 113.064 3.08594 113.064 6.30827V6.7686C113.064 10.008 110.421 12.6506 107.199 12.6506Z" fill="#F958CF"/>
<path d="M77.0555 22.2323L79.272 26.7334C79.6811 27.5517 80.4484 28.1144 81.352 28.2508L86.3304 28.9668C88.5979 29.2908 89.5016 32.0869 87.8648 33.6895L84.2674 37.2017C83.6195 37.8325 83.3126 38.7531 83.4661 39.6568L84.3186 44.6181C84.7107 46.8686 82.3408 48.5906 80.312 47.5336L75.8621 45.1978C75.0608 44.7716 74.089 44.7716 73.2876 45.1978L68.8378 47.5336C66.8089 48.6077 64.439 46.8857 64.8312 44.6181L65.6836 39.6568C65.8371 38.7531 65.5472 37.8495 64.8823 37.2017L61.2849 33.6895C59.6482 32.0869 60.5518 29.3078 62.8193 28.9668L67.7978 28.2508C68.7014 28.1144 69.4686 27.5517 69.8778 26.7334L72.0942 22.2323C73.1001 20.1864 76.0326 20.1864 77.0555 22.2323Z" fill="#FFA426"/>
<path d="M105.187 105.587H43.9457L49.3503 81.8879C49.7765 80.0296 51.4303 78.6997 53.3399 78.6997H95.7927C97.7022 78.6997 99.356 80.0125 99.7822 81.8879L105.187 105.587Z" fill="#2475EA"/>
<path d="M104.317 107.581H44.1504C42.6159 107.581 41.3713 106.32 41.3713 104.802V101.239C41.3713 99.7045 42.633 98.4599 44.1504 98.4599H104.317C105.852 98.4599 107.097 99.7215 107.097 101.239V104.802C107.097 106.337 105.852 107.581 104.317 107.581Z" fill="#0450BF"/>
<path d="M107.165 14.3214H41.4394C40.928 14.3214 40.5188 13.9123 40.5188 13.4008C40.5188 12.8893 40.928 12.4801 41.4394 12.4801H107.165C107.676 12.4801 108.085 12.8893 108.085 13.4008C108.085 13.8952 107.659 14.3214 107.165 14.3214Z" fill="#E633B7"/>
<path d="M53.357 41.0548C52.5898 41.0548 51.8396 40.6115 51.4986 39.8613C51.4475 39.742 50.0665 36.7584 48.6685 32.4278C47.2363 28.0291 46.4861 22.5904 46.452 22.3687C46.2986 21.2435 47.0829 20.2205 48.1911 20.0671C49.3163 19.9136 50.3393 20.6979 50.4927 21.8061C50.4927 21.8572 51.2429 27.1255 52.5557 31.1662C53.8856 35.258 55.1984 38.1223 55.2154 38.1394C55.6928 39.1623 55.2495 40.3728 54.2265 40.8502C53.9537 40.9866 53.6469 41.0548 53.357 41.0548Z" fill="#FFE01A"/>
<path d="M56.9032 49.2555C56.1871 49.2555 55.4711 48.8634 55.113 48.1984L54.2776 46.664C53.732 45.6751 54.1071 44.4305 55.096 43.885C56.0848 43.3394 57.3294 43.7145 57.875 44.7033L58.7104 46.2378C59.256 47.2266 58.8809 48.4712 57.892 49.0168C57.5681 49.1703 57.2271 49.2555 56.9032 49.2555Z" fill="#FFE01A"/>
<path d="M27.8569 74.8186C29.8822 74.2525 30.8039 73.3012 31.3254 71.278C31.5073 70.5434 32.5382 70.5314 32.7444 71.2539C33.3144 73.265 34.2725 74.1803 36.31 74.6981C37.0498 74.8788 37.0619 75.9024 36.3342 76.1071C34.3089 76.6731 33.3871 77.6245 32.8657 79.6476C32.6837 80.3822 31.6529 80.3943 31.4467 79.6717C30.8767 77.6606 29.9186 76.7454 27.8811 76.2275C27.1413 76.0469 27.1292 75.0233 27.8569 74.8186Z" fill="#FFE01A"/>
</svg>