<svg width="14" height="11" viewBox="0 0 14 11" fill="none" xmlns="http://www.w3.org/2000/svg">
<path d="M0.333341 5.32413C0.33099 4.9252 0.475638 4.53993 0.738654 4.24461C0.892 4.08381 1.07542 3.956 1.27804 3.86872C1.48066 3.78144 1.69838 3.73648 1.91834 3.73648C2.13829 3.73648 2.35601 3.78144 2.55863 3.86872C2.76125 3.956 2.94467 4.08381 3.09802 4.24461L4.66484 5.84846C4.9077 6.08962 5.2333 6.22457 5.57228 6.22457C5.91127 6.22457 6.23687 6.08962 6.47973 5.84846L10.8839 1.35149C11.1659 1.05255 11.5468 0.871199 11.9527 0.842698C12.3585 0.814197 12.7603 0.940576 13.0799 1.19727C13.2482 1.3407 13.3853 1.51831 13.4826 1.71878C13.5798 1.91925 13.6351 2.13819 13.6447 2.36163C13.6544 2.58507 13.6183 2.80811 13.5388 3.01654C13.4592 3.22498 13.3379 3.41422 13.1827 3.57221L7.80459 9.05617C7.51064 9.35702 7.16133 9.59573 6.7767 9.75861C6.39207 9.92149 5.97972 10.0053 5.56324 10.0053C5.14676 10.0053 4.73436 9.92149 4.34974 9.75861C3.96511 9.59573 3.6158 9.35702 3.32185 9.05617L0.823358 6.47767C0.669705 6.32895 0.547111 6.15011 0.462907 5.95188C0.378703 5.75366 0.334625 5.54014 0.333341 5.32413Z" fill="#40B8F4"/>
</svg>
